<?xml version="1.0" encoding="UTF-8" standalone="no"?><!DOCTYPE svg PUBLIC "-//W3C//DTD SVG 1.1//EN" "http://www.w3.org/Graphics/SVG/1.1/DTD/svg11.dtd"><svg width="1024px" height="1024px" version="1.1" xmlns="http://www.w3.org/2000/svg" xmlns:xlink="http://www.w3.org/1999/xlink" xml:space="preserve" xmlns:serif="http://www.serif.com/" style="fill-rule:evenodd;clip-rule:evenodd;stroke-linejoin:round;stroke-miterlimit:2;"><g transform="matrix(1.08628,0,0,1.02532,-44.8999,-37.1407)"><path d="M983.996,225.978L983.996,845.177C983.996,949.906 903.741,1034.93 804.89,1034.93L220.439,1034.93C121.588,1034.93 41.333,949.906 41.333,845.177L41.333,225.978C41.333,121.25 121.588,36.223 220.439,36.223L804.89,36.223C903.741,36.223 983.996,121.25 983.996,225.978Z" style="fill:rgb(141,247,131);"/></g><g transform="matrix(1,0,0,1,-573.451,-199.749)"><path d="M1567.45,696.906C1566.63,671.754 1564.15,646.603 1559.2,622.276C1546.01,551.358 1517.56,486.211 1475.09,427.662C1445.4,387.255 1409.94,351.383 1369.54,322.109C1311.4,279.228 1245.84,251.19 1174.92,237.996C1145.65,232.636 1115.55,229.749 1085.45,229.749C1055.35,229.749 1024.84,232.636 995.978,237.996C925.059,251.19 859.913,279.64 801.363,322.109C760.956,351.796 725.085,387.255 695.81,427.662C652.929,485.799 624.891,551.358 611.697,622.276C606.337,651.551 603.451,681.65 603.451,711.749C603.451,741.849 606.337,772.36 611.697,801.222C624.891,872.141 653.341,937.287 695.81,995.837C725.497,1036.24 760.956,1072.12 801.363,1101.39C859.5,1144.27 925.059,1172.31 995.978,1185.5C1025.25,1190.86 1055.35,1193.75 1085.45,1193.75C1115.55,1193.75 1146.06,1190.86 1174.92,1185.5C1245.84,1172.31 1310.99,1143.86 1369.54,1101.39C1409.94,1071.7 1445.82,1036.24 1475.09,995.837C1517.97,937.7 1546.01,872.141 1559.2,801.222C1563.74,776.896 1566.63,751.744 1567.45,726.593L1567.45,696.081L1567.45,696.906ZM1351.4,346.848C1389.33,374.473 1422.73,407.871 1450.35,445.804C1457.36,455.287 1463.96,464.771 1469.73,475.079C1433.45,461.06 1396.34,449.103 1358.4,439.207C1348.51,401.686 1336.14,364.165 1322.12,327.469C1332.02,333.654 1341.5,340.251 1351.4,346.848ZM719.724,445.804C747.35,407.871 780.748,374.473 818.681,346.848C828.164,339.838 837.647,333.241 847.955,327.469C833.937,363.753 821.979,400.861 812.084,438.795C774.15,448.69 737.042,461.06 700.345,475.079C706.53,465.183 713.127,455.7 719.724,445.804ZM640.972,628.049C648.393,589.291 660.351,552.182 677.256,517.135L677.668,517.135C718.9,499.405 760.956,484.562 803.837,472.192C786.932,545.997 777.449,621.452 776.624,696.906L633.55,696.906C634.375,673.404 636.848,650.726 640.972,628.049ZM677.256,907.188L676.843,907.188C659.938,872.141 647.981,834.62 640.559,795.862C636.436,773.185 633.962,750.507 633.138,727.005L776.212,727.005C777.037,803.284 786.108,877.914 803.013,951.306C760.132,939.349 718.075,924.506 677.256,906.776L677.256,907.188ZM818.681,1077.48C780.748,1049.85 747.35,1016.45 719.724,978.519C712.715,969.036 706.118,959.553 700.345,949.245C736.629,963.263 774.15,975.221 811.671,985.529C821.567,1023.05 833.937,1060.57 847.955,1097.27C838.06,1091.08 828.576,1084.49 818.681,1077.89L818.681,1077.48ZM1279.65,1119.94C1244.19,1136.85 1207.09,1148.81 1168.33,1156.23C1145.65,1160.76 1122.97,1163.24 1099.47,1164.06L1099.47,1120.77L1068.96,1120.77L1068.96,1164.06C1045.46,1163.24 1022.37,1160.76 1000.1,1156.64C961.343,1149.22 924.234,1137.26 889.187,1120.36C871.458,1078.71 856.614,1036.66 844.657,993.775C894.135,1004.91 944.438,1013.15 995.565,1017.28L996.802,1017.28L998.452,1015.63L998.452,986.766L995.978,986.766C941.552,981.818 887.95,973.159 835.586,959.965C816.619,883.274 806.724,804.521 805.487,725.356L805.487,700.617C806.311,621.039 816.619,541.05 835.998,463.534C867.334,455.7 898.671,449.515 930.419,444.979L932.481,444.979L932.481,442.506C933.305,434.259 934.542,425.6 936.604,417.354L936.604,415.705C937.016,415.705 934.955,413.643 934.955,413.643L933.305,413.643C903.618,418.179 873.931,423.539 844.245,430.136C856.202,387.255 871.045,345.198 888.363,304.379C923.41,287.062 960.931,275.104 999.688,267.683C1022.37,263.559 1045.04,261.086 1068.55,260.261L1068.55,302.73L1070.19,304.379L1071.43,304.379C1075.56,303.967 1079.27,303.967 1082.98,303.967C1086.69,303.967 1091.63,303.967 1095.35,304.379L1096.58,304.379L1098.23,302.73L1098.23,260.261C1121.74,261.086 1144.41,263.559 1167.09,267.683C1205.85,275.104 1242.96,287.062 1278,303.967C1295.73,345.611 1310.58,387.667 1322.53,430.548C1292.02,423.539 1261.51,417.766 1230.17,413.643L1228.53,413.643L1226.46,415.705L1226.46,416.942C1228.94,425.188 1230.17,433.435 1231,442.093L1231,444.567L1233.47,444.567C1266.46,449.515 1299.03,455.7 1331.19,463.534C1350.06,539.828 1359.95,617.754 1361.27,696.906C1361.28,697.318 1361.29,697.73 1361.29,698.143L1361.29,722.882C1361.28,724.394 1361.26,725.905 1361.23,727.417C1360.07,805.497 1349.79,883.922 1330.78,959.965C1278.83,972.747 1225.64,981.405 1172.04,986.353L1169.56,986.353L1169.56,1015.22L1171.21,1016.87L1172.45,1016.87C1222.75,1012.74 1272.64,1004.91 1321.71,993.363C1309.75,1036.24 1294.91,1078.3 1277.59,1119.12L1279.65,1119.94ZM1450.35,978.519C1422.73,1016.45 1389.33,1049.85 1351.4,1077.48C1341.91,1084.49 1332.43,1091.08 1322.12,1096.86C1336.14,1060.57 1348.1,1023.46 1357.99,985.529C1395.93,975.633 1433.04,963.263 1469.73,949.245C1463.55,959.14 1456.95,968.624 1450.35,978.519ZM1529.11,796.275C1521.68,835.032 1509.73,872.141 1492.82,907.188L1492.41,907.188C1451.18,924.918 1409.12,939.761 1366.24,952.131C1383.14,878.326 1392.63,802.872 1393.45,727.417L1536.53,727.417C1535.7,750.92 1533.23,773.597 1529.11,796.275ZM1393.87,696.906C1393.04,621.039 1383.97,545.997 1367.06,472.605C1409.94,484.562 1452,499.405 1492.82,516.723L1493.23,516.723C1510.14,551.77 1522.1,589.291 1529.52,628.049C1533.64,650.726 1536.11,673.404 1536.94,696.906L1393.87,696.906Z" style="fill-opacity:0.2;fill-rule:nonzero;"/></g><g transform="matrix(0.874689,0,0,0.870736,67.9103,141.956)"><rect x="443.171" y="675.776" width="129.08" height="189.911" style="fill:rgb(55,56,57);"/></g><g transform="matrix(1.01889,0,0,1.22795,-72.833,-99.379)"><path d="M795.611,491.703C795.611,604.331 696.306,695.771 573.989,695.771C451.672,695.771 352.366,604.331 352.366,491.703M684.8,491.703C684.8,548.017 635.147,593.737 573.989,593.737C512.83,593.737 463.177,548.017 463.177,491.703L463.177,287.529C463.177,231.215 512.83,185.495 573.989,185.495C635.147,185.495 684.8,231.215 684.8,287.529L684.8,491.703" style="fill:rgb(55,56,57);"/></g></svg>
